<?xml version="1.0" encoding="utf-8"?>
<!-- Generator: Adobe Illustrator 16.0.0, SVG Export Plug-In . SVG Version: 6.00 Build 0)  -->
<!DOCTYPE svg PUBLIC "-//W3C//DTD SVG 1.1//EN" "http://www.w3.org/Graphics/SVG/1.1/DTD/svg11.dtd">
<svg version="1.1" id="Layer_1" xmlns="http://www.w3.org/2000/svg" xmlns:xlink="http://www.w3.org/1999/xlink" x="0px" y="0px"
	 width="165px" height="40px" viewBox="0 0 165 40" enable-background="new 0 0 165 40" xml:space="preserve">
<g>
	<g>
		<path fill="#009245" d="M71.234,7.053c0.07-2.585,2.268-6.178,2.881-7.22c0,0-0.984,0.582-1.502,0.897
			c0,0-1.667,4.207-1.953,6.277L71.234,7.053z"/>
		<path fill="#009245" d="M71.303,5.359c0,0,1.508-2.575,3.188-2.765s2.653,0.521,4.485-0.082c-3.546,6.194-4.891,0.782-7.707,3.195
			L71.303,5.359z"/>
		<path fill="#009245" d="M70.419,3.949c0.437,1.182,0.085,2.011,0.854,3.229c-5.191-1.465-1.442-3.396-3.721-5.003
			C67.553,2.175,69.98,2.77,70.419,3.949z"/>
	</g>
	<g>
		<path fill="#F7931E" d="M19.683,3.672l-3.926,14.662h-3.818l-2.069-8.088l-1.957,8.088H3.934L0,3.672h4.275l2.07,8.439l2.02-8.439
			h3.568l2.197,8.457l2.073-8.457H19.683z"/>
		<path fill="#F7931E" d="M27.621,14.414l4.033,0.268c-0.238,1.074-0.848,1.988-1.826,2.744c-0.98,0.756-2.305,1.135-3.976,1.135
			c-1.857,0-3.34-0.531-4.446-1.596c-1.105-1.063-1.658-2.383-1.658-3.959c0-1.631,0.545-3.01,1.637-4.135s2.549-1.688,4.37-1.688
			c1.765,0,3.19,0.531,4.278,1.592s1.633,2.502,1.633,4.328c0,0.15-0.004,0.357-0.012,0.623H24.27
			c0.015,0.688,0.138,1.197,0.369,1.529c0.23,0.334,0.672,0.5,1.323,0.5C26.9,15.756,27.454,15.309,27.621,14.414z M27.328,11.578
			c-0.008-0.738-0.157-1.234-0.449-1.488c-0.291-0.252-0.654-0.381-1.086-0.381c-1.021,0-1.535,0.623-1.535,1.869H27.328z"/>
		<path fill="#F7931E" d="M35.818,18.334H33.38V3.672h4.262v5.039c0.593-1.018,1.536-1.527,2.83-1.527
			c0.911,0,1.685,0.236,2.321,0.709c0.636,0.473,1.109,1.148,1.42,2.027c0.311,0.875,0.467,1.799,0.467,2.764
			c0,1.762-0.398,3.182-1.193,4.26s-1.98,1.617-3.557,1.617c-1.555,0-2.736-0.576-3.546-1.73
			C36.151,17.26,35.965,17.762,35.818,18.334z M37.642,14.264c0,1.074,0.419,1.611,1.257,1.611c0.455,0,0.805-0.195,1.047-0.586
			s0.363-1.193,0.363-2.412c0-1.324-0.137-2.156-0.412-2.496c-0.274-0.34-0.615-0.512-1.02-0.512c-0.318,0-0.603,0.123-0.855,0.365
			c-0.254,0.244-0.38,0.6-0.38,1.064V14.264z"/>
		<path fill="#F7931E" d="M45.428,15.24l3.416-0.461c0.195,0.787,0.969,1.182,2.32,1.182c1.121,0,1.682-0.215,1.682-0.645
			c0-0.186-0.109-0.332-0.326-0.436c-0.216-0.104-0.729-0.209-1.539-0.316c-2.241-0.309-3.641-0.791-4.197-1.445
			c-0.557-0.656-0.836-1.383-0.836-2.186c0-1.117,0.471-2.021,1.41-2.713c0.94-0.689,2.174-1.037,3.699-1.037
			c2.675,0,4.381,0.957,5.117,2.869l-3.274,0.613c-0.304-0.646-0.943-0.967-1.919-0.967c-0.463,0-0.809,0.063-1.036,0.186
			c-0.228,0.127-0.341,0.25-0.341,0.371c0,0.359,0.346,0.578,1.041,0.654c1.807,0.197,3.033,0.402,3.676,0.609
			c0.645,0.209,1.193,0.586,1.648,1.139s0.684,1.219,0.684,2c0,1.195-0.505,2.146-1.514,2.848c-1.008,0.703-2.398,1.055-4.17,1.055
			C47.984,18.561,46.137,17.453,45.428,15.24z"/>
		<path fill="#F7931E" d="M65.088,7.41v2.783h-2.201v4.025c0,0.553,0.105,0.881,0.315,0.986c0.209,0.102,0.426,0.154,0.649,0.154
			c0.348,0,0.76-0.061,1.236-0.184v3.051c-0.854,0.166-1.691,0.248-2.516,0.248c-1.33,0-2.308-0.283-2.934-0.85
			c-0.625-0.564-0.938-1.467-0.938-2.707l0.013-1.277v-3.447h-1.65V7.41h1.65l0.064-3.555l4.109-0.064V7.41H65.088z"/>
		<path fill="#F7931E" d="M73.818,14.414l4.035,0.268c-0.239,1.074-0.848,1.988-1.828,2.744c-0.979,0.756-2.305,1.135-3.975,1.135
			c-1.857,0-3.34-0.531-4.446-1.596c-1.106-1.063-1.659-2.383-1.659-3.959c0-1.631,0.546-3.01,1.638-4.135s2.549-1.688,4.37-1.688
			c1.764,0,3.189,0.531,4.279,1.592c1.087,1.061,1.632,2.502,1.632,4.328c0,0.15-0.004,0.357-0.011,0.623h-7.387
			c0.016,0.688,0.139,1.197,0.369,1.529c0.231,0.334,0.674,0.5,1.324,0.5C73.1,15.756,73.652,15.309,73.818,14.414z M73.526,11.578
			c-0.008-0.738-0.157-1.234-0.448-1.488c-0.292-0.252-0.654-0.381-1.086-0.381c-1.023,0-1.535,0.623-1.535,1.869H73.526z"/>
		<path fill="#F7931E" d="M83.699,18.334h-4.144V7.41h3.601v2.256c0.412-1.641,1.37-2.461,2.874-2.461
			c0.151,0,0.361,0.016,0.629,0.045v3.813c-0.305-0.072-0.575-0.107-0.813-0.107c-1.433,0-2.146,0.791-2.146,2.375V18.334z"/>
		<path fill="#F7931E" d="M92.96,11.105v3.373h-5.499v-3.373H92.96z"/>
		<path fill="#F7931E" d="M94.554,18.334V3.672h5.727c2.486,0,4.349,0.73,5.584,2.191c1.237,1.461,1.854,3.15,1.854,5.07
			c0,2.191-0.663,3.973-1.989,5.344c-1.328,1.371-3.05,2.057-5.168,2.057H94.554z M99.097,14.961h1.184
			c0.751,0,1.386-0.361,1.902-1.084c0.517-0.725,0.774-1.709,0.774-2.955c0-1.064-0.229-1.986-0.688-2.76
			c-0.46-0.773-1.122-1.16-1.989-1.16h-1.184V14.961z"/>
		<path fill="#F7931E" d="M120.212,7.41v10.924h-4.001v-1.793c-0.586,1.346-1.729,2.02-3.428,2.02c-1.048,0-1.859-0.289-2.435-0.865
			s-0.862-1.4-0.862-2.477V7.41h4.327v6.875c0,0.43,0.061,0.73,0.18,0.908c0.118,0.174,0.352,0.264,0.699,0.264
			c0.368,0,0.669-0.133,0.899-0.393c0.231-0.264,0.348-0.629,0.348-1.102V7.41H120.212z"/>
		<path fill="#F7931E" d="M133.258,18.334h-4.057v-1.449c-0.6,1.117-1.591,1.676-2.971,1.676c-1.273,0-2.305-0.492-3.097-1.477
			c-0.791-0.986-1.188-2.416-1.188-4.293c0-1.754,0.398-3.146,1.193-4.178s1.847-1.547,3.155-1.547c1.092,0,1.992,0.412,2.7,1.236
			V3.672h4.263V18.334z M128.995,11.309c0-0.98-0.408-1.469-1.225-1.469c-0.572,0-0.945,0.309-1.123,0.934
			c-0.178,0.621-0.266,1.385-0.266,2.287c0,1.77,0.455,2.654,1.367,2.654c0.347,0,0.64-0.141,0.884-0.42
			c0.242-0.281,0.362-0.705,0.362-1.279V11.309z"/>
		<path fill="#F7931E" d="M139.797,3.672v14.662h-4.262V3.672H139.797z"/>
		<path fill="#F7931E" d="M149.362,14.414l4.034,0.268c-0.239,1.074-0.848,1.988-1.829,2.744c-0.979,0.756-2.304,1.135-3.974,1.135
			c-1.857,0-3.341-0.531-4.447-1.596c-1.105-1.063-1.658-2.383-1.658-3.959c0-1.631,0.545-3.01,1.637-4.135
			c1.093-1.125,2.55-1.688,4.371-1.688c1.764,0,3.189,0.531,4.279,1.592c1.087,1.061,1.632,2.502,1.632,4.328
			c0,0.15-0.005,0.357-0.011,0.623h-7.387c0.016,0.688,0.138,1.197,0.37,1.529c0.23,0.334,0.672,0.5,1.322,0.5
			C148.643,15.756,149.194,15.309,149.362,14.414z M149.068,11.578c-0.007-0.738-0.156-1.234-0.447-1.488
			c-0.293-0.252-0.654-0.381-1.087-0.381c-1.022,0-1.535,0.623-1.535,1.869H149.068z"/>
		<path fill="#F7931E" d="M165,7.41l-4.328,11.838c-0.332,0.895-0.809,1.596-1.431,2.1s-1.581,0.758-2.873,0.758
			c-0.312,0-1.035-0.033-2.169-0.098v-3.039c0.563,0.084,1.084,0.129,1.561,0.129c1.243,0,1.865-0.273,1.865-0.816
			c0-0.18-0.062-0.426-0.184-0.742L153.482,7.41h4.628l1.824,5.83l1.904-5.83H165z"/>
		<path fill="#F7931E" d="M34.041,34.283h-4.826v5.49H24.79V25.111h10.704v3.492h-6.279v2.385h4.826V34.283z"/>
		<path fill="#F7931E" d="M41.687,40c-1.829,0-3.282-0.564-4.359-1.691s-1.616-2.453-1.616-3.969c0-1.633,0.562-2.994,1.686-4.082
			c1.125-1.09,2.587-1.635,4.389-1.635c1.813,0,3.271,0.539,4.375,1.613s1.653,2.42,1.653,4.037c0,1.633-0.558,2.996-1.675,4.088
			S43.537,40,41.687,40z M41.752,37.4c0.672,0,1.082-0.346,1.231-1.037c0.147-0.691,0.222-1.412,0.222-2.164
			c0-1.023-0.105-1.762-0.314-2.213c-0.21-0.451-0.586-0.676-1.127-0.676c-0.5,0-0.865,0.232-1.096,0.697
			c-0.232,0.467-0.348,1.232-0.348,2.297c0,1.254,0.119,2.084,0.358,2.488C40.916,37.197,41.274,37.4,41.752,37.4z"/>
		<path fill="#F7931E" d="M54.885,40c-1.829,0-3.283-0.564-4.359-1.691c-1.078-1.127-1.616-2.453-1.616-3.969
			c0-1.633,0.562-2.994,1.686-4.082c1.124-1.09,2.587-1.635,4.388-1.635c1.813,0,3.272,0.539,4.375,1.613
			c1.104,1.074,1.654,2.42,1.654,4.037c0,1.633-0.559,2.996-1.676,4.088C58.22,39.453,56.734,40,54.885,40z M54.949,37.4
			c0.672,0,1.083-0.346,1.232-1.037c0.146-0.691,0.221-1.412,0.221-2.164c0-1.023-0.104-1.762-0.314-2.213
			c-0.209-0.451-0.585-0.676-1.127-0.676c-0.5,0-0.865,0.232-1.096,0.697c-0.232,0.467-0.348,1.232-0.348,2.297
			c0,1.254,0.119,2.084,0.359,2.488C54.114,37.197,54.473,37.4,54.949,37.4z"/>
		<path fill="#F7931E" d="M73.462,39.773h-4.057v-1.449C68.805,39.441,67.814,40,66.434,40c-1.272,0-2.305-0.492-3.096-1.477
			c-0.793-0.986-1.188-2.414-1.188-4.291c0-1.754,0.397-3.148,1.192-4.18s1.847-1.547,3.155-1.547c1.092,0,1.993,0.412,2.701,1.236
			v-4.631h4.263V39.773z M69.199,32.75c0-0.982-0.408-1.473-1.227-1.473c-0.57,0-0.943,0.311-1.121,0.936
			c-0.178,0.623-0.266,1.385-0.266,2.287c0,1.77,0.455,2.654,1.365,2.654c0.348,0,0.643-0.141,0.885-0.42s0.363-0.705,0.363-1.279
			V32.75z"/>
		<path fill="#F7931E" d="M79.914,35.531l4.218-0.752c0.354,1.182,1.266,1.771,2.733,1.771c1.143,0,1.714-0.301,1.714-0.902
			c0-0.314-0.133-0.561-0.396-0.734c-0.264-0.176-0.736-0.332-1.415-0.467c-2.596-0.492-4.263-1.137-4.999-1.934
			c-0.738-0.793-1.105-1.729-1.105-2.803c0-1.383,0.528-2.531,1.588-3.449c1.06-0.916,2.583-1.377,4.571-1.377
			c3.014,0,5.006,1.201,5.975,3.6l-3.764,1.129c-0.39-0.982-1.181-1.471-2.374-1.471c-0.991,0-1.486,0.303-1.486,0.912
			c0,0.271,0.113,0.482,0.337,0.633c0.225,0.15,0.658,0.293,1.302,0.43c1.771,0.371,3.028,0.699,3.774,0.984
			c0.744,0.285,1.366,0.773,1.865,1.465c0.498,0.691,0.747,1.508,0.747,2.447c0,1.48-0.607,2.684-1.821,3.605
			C90.162,39.539,88.568,40,86.594,40C82.986,40,80.76,38.51,79.914,35.531z"/>
		<path fill="#F7931E" d="M105.615,39.773h-4.327v-6.574c0-0.6-0.067-1.014-0.199-1.24c-0.133-0.225-0.39-0.338-0.771-0.338
			c-0.295,0-0.553,0.088-0.772,0.264c-0.219,0.176-0.346,0.357-0.383,0.541c-0.035,0.188-0.055,0.576-0.055,1.172v6.176h-4.326
			V25.111h4.326v5.027c0.782-1.01,1.801-1.516,3.06-1.516c0.636,0,1.194,0.111,1.676,0.328c0.48,0.221,0.851,0.5,1.11,0.844
			c0.261,0.344,0.437,0.676,0.526,0.998c0.091,0.324,0.136,0.945,0.136,1.869V39.773z"/>
		<path fill="#F7931E" d="M119.019,39.773h-4.12c-0.102-0.465-0.152-0.973-0.152-1.525C113.966,39.416,112.782,40,111.2,40
			c-1.303,0-2.276-0.33-2.924-0.988c-0.646-0.658-0.97-1.414-0.97-2.266c0-1.154,0.529-2.088,1.589-2.799
			c1.06-0.713,2.938-1.141,5.633-1.285v-0.246c0-0.48-0.109-0.799-0.33-0.957c-0.22-0.156-0.544-0.234-0.97-0.234
			c-0.999,0-1.555,0.396-1.671,1.191l-3.948-0.365c0.564-2.283,2.484-3.428,5.76-3.428c0.889,0,1.705,0.09,2.451,0.264
			c0.744,0.178,1.333,0.449,1.767,0.82c0.435,0.375,0.725,0.768,0.874,1.184c0.148,0.416,0.222,1.215,0.222,2.396v4.361
			C118.683,38.479,118.795,39.186,119.019,39.773z M114.528,34.66c-1.843,0.193-2.765,0.777-2.765,1.752
			c0,0.658,0.364,0.988,1.096,0.988c0.463,0,0.855-0.135,1.183-0.408c0.324-0.273,0.486-0.873,0.486-1.805V34.66z"/>
		<path fill="#F7931E" d="M125.07,39.773h-4.143V28.85h3.6v2.256c0.413-1.641,1.37-2.461,2.874-2.461
			c0.151,0,0.362,0.016,0.63,0.045v3.813c-0.304-0.07-0.576-0.107-0.813-0.107c-1.432,0-2.147,0.793-2.147,2.375V39.773z"/>
		<path fill="#F7931E" d="M136.685,35.854l4.034,0.27c-0.238,1.072-0.848,1.986-1.828,2.742c-0.979,0.756-2.304,1.135-3.974,1.135
			c-1.858,0-3.34-0.531-4.447-1.596c-1.105-1.064-1.658-2.383-1.658-3.959c0-1.631,0.546-3.01,1.637-4.135
			c1.092-1.123,2.549-1.688,4.371-1.688c1.764,0,3.189,0.531,4.278,1.592c1.088,1.061,1.632,2.504,1.632,4.328
			c0,0.15-0.004,0.357-0.011,0.623h-7.386c0.016,0.688,0.138,1.197,0.369,1.531c0.231,0.332,0.672,0.498,1.323,0.498
			C135.965,37.195,136.518,36.748,136.685,35.854z M136.392,33.018c-0.007-0.738-0.156-1.232-0.448-1.486
			c-0.292-0.256-0.654-0.383-1.086-0.383c-1.023,0-1.535,0.625-1.535,1.869H136.392z"/>
	</g>
</g>
</svg>
